<?xml version="1.0" encoding="utf-8"?>
<!-- Generator: Adobe Illustrator 16.0.0, SVG Export Plug-In . SVG Version: 6.00 Build 0)  -->
<!DOCTYPE svg PUBLIC "-//W3C//DTD SVG 1.1//EN" "http://www.w3.org/Graphics/SVG/1.1/DTD/svg11.dtd">
<svg version="1.1" id="Layer_1" xmlns="http://www.w3.org/2000/svg" xmlns:xlink="http://www.w3.org/1999/xlink" x="0px" y="0px"
	 width="52.002px" height="42.258px" viewBox="3.998 8.872 52.002 42.258" enable-background="new 3.998 8.872 52.002 42.258"
	 xml:space="preserve">
<path fill="#228BE6" d="M56,13.874c-1.914,0.85-3.971,1.422-6.128,1.68c2.204-1.32,3.894-3.41,4.69-5.902
	c-2.061,1.222-4.345,2.11-6.776,2.59c-1.946-2.074-4.718-3.37-7.786-3.37c-5.893,0-10.668,4.778-10.668,10.668
	c0,0.836,0.096,1.652,0.276,2.43c-8.866-0.444-16.726-4.692-21.99-11.147c-0.916,1.576-1.442,3.408-1.442,5.366
	c0,3.7,1.882,6.966,4.744,8.878c-1.748-0.056-3.394-0.536-4.832-1.334c0,0.046,0,0.088,0,0.134c0,5.17,3.676,9.481,8.558,10.46
	c-0.894,0.244-1.838,0.374-2.812,0.374c-0.686,0-1.356-0.068-2.006-0.19c1.358,4.238,5.298,7.324,9.966,7.41
	c-3.65,2.862-8.25,4.568-13.25,4.568c-0.86,0-1.71-0.051-2.546-0.15c4.722,3.026,10.328,4.792,16.354,4.792
	c19.625,0,30.352-16.256,30.352-30.354c0-0.462-0.011-0.922-0.03-1.38C52.76,17.89,54.57,16.012,56,13.874z"/>
</svg>
