<?xml version="1.0" encoding="utf-8"?>
<!-- Generator: Adobe Illustrator 16.0.0, SVG Export Plug-In . SVG Version: 6.00 Build 0)  -->
<!DOCTYPE svg PUBLIC "-//W3C//DTD SVG 1.1//EN" "http://www.w3.org/Graphics/SVG/1.1/DTD/svg11.dtd">
<svg version="1.1" id="Layer_1" xmlns="http://www.w3.org/2000/svg" xmlns:xlink="http://www.w3.org/1999/xlink" x="0px" y="0px"
	 width="534.127px" height="566.93px" viewBox="158.131 0 534.127 566.93" enable-background="new 158.131 0 534.127 566.93"
	 xml:space="preserve">
<g>
	<path fill="#FFFFFF" d="M571.61,64.407v35.664h56.241h0.046v0.092c17.763,0.046,33.865,7.244,45.491,18.916
		c11.534,11.581,18.731,27.59,18.778,45.307h0.092v0.092v338.045v0.046h-0.092c-0.047,17.717-7.244,33.818-18.917,45.491
		c-11.58,11.534-27.59,18.731-45.306,18.777v0.092h-0.093H343.187h-0.047v-0.092c-17.716-0.046-33.864-7.243-45.49-18.916
		c-11.534-11.58-18.731-27.59-18.778-45.307h-0.092v-0.092v-75.711h-56.241h-0.046v-0.092c-17.717-0.047-33.864-7.244-45.491-18.917
		c-11.534-11.58-18.731-27.59-18.777-45.306h-0.093v-0.093V64.407v-0.046h0.093c0.046-17.763,7.289-33.864,18.916-45.491
		c11.58-11.534,27.59-18.731,45.307-18.778V0h0.092h284.665h0.046v0.092c17.763,0.046,33.864,7.244,45.491,18.916
		c11.534,11.581,18.731,27.59,18.777,45.307h0.092V64.407L571.61,64.407z M522.797,100.071V64.407v-0.092h0.092
		c0-4.199-1.799-8.074-4.659-10.935c-2.814-2.814-6.736-4.614-10.935-4.614v0.092h-0.046H222.584h-0.092v-0.092
		c-4.198,0-8.074,1.799-10.935,4.66c-2.814,2.814-4.613,6.736-4.613,10.934h0.092v0.046v297.998v0.093h-0.092
		c0,4.198,1.799,8.073,4.659,10.934c2.814,2.814,6.736,4.614,10.935,4.614v-0.093h0.046h56.241V164.478v-0.046h0.092
		c0.047-17.763,7.29-33.865,18.917-45.491c11.58-11.534,27.59-18.731,45.306-18.778v-0.092h0.093H522.797L522.797,100.071z
		 M643.399,502.523V164.478v-0.092h0.093c0-4.198-1.8-8.074-4.66-10.935c-2.814-2.814-6.735-4.613-10.935-4.613v0.092h-0.046
		H343.187h-0.093v-0.092c-4.198,0-8.074,1.799-10.935,4.66c-2.814,2.814-4.613,6.736-4.613,10.934h0.092v0.046v338.045v0.092h-0.092
		c0,4.198,1.799,8.074,4.66,10.935c2.813,2.814,6.735,4.613,10.934,4.613v-0.092h0.047h284.664h0.093v0.092
		c4.198,0,8.073-1.799,10.934-4.659c2.814-2.814,4.614-6.736,4.614-10.935h-0.093V502.523L643.399,502.523z"/>
</g>
</svg>
